PathFileType	4	(X/Y/Z)	64_1_2_p0_0-238_filt_butterworth.trc
DataRate	CameraRate	NumFrames	NumMarkers	Units	OrigDataRate	OrigDataStartFrame	OrigNumFrames
40.0	40.0	4	27	m	40.0	0	238
Frame#	Time	RHip			RKnee			RAnkle			RBigToe			RSmallToe			RHeel			LHip			LKnee			LAnkle			LBigToe			LSmallToe			LHeel			Neck			Head			Nose			RShoulder			RElbow			RWrist			RThumb			RIndex			RPinky			LShoulder			LElbow			LWrist			LThumb			LIndex			LPinky			
		X1	Y1	Z1	X2	Y2	Z2	X3	Y3	Z3	X4	Y4	Z4	X5	Y5	Z5	X6	Y6	Z6	X7	Y7	Z7	X8	Y8	Z8	X9	Y9	Z9	X10	Y10	Z10	X11	Y11	Z11	X12	Y12	Z12	X13	Y13	Z13	X14	Y14	Z14	X15	Y15	Z15	X16	Y16	Z16	X17	Y17	Z17	X18	Y18	Z18	X19	Y19	Z19	X20	Y20	Z20	X21	Y21	Z21	X22	Y22	Z22	X23	Y23	Z23	X24	Y24	Z24	X25	Y25	Z25	X26	Y26	Z26	X27	Y27	Z27	
0	0.0	0.3094203220286157	0.7193633157073075	0.5517061545443821	0.29352803817344086	0.9769787862428281	0.925112706231258	0.2512749180677877	1.1834260972615147	1.3101757859560699	0.28443171572494386	1.1386758749284012	1.4097815081616187	0.32927351305692804	1.1874693075194078	1.3887433436963197	0.19645771191000663	1.2689586354245865	1.343369100231426	0.10825338201981913	0.7113038469474173	0.5853066762990591	0.08132339885654193	0.9239220914878301	0.9496805017067347	0.07548050878638599	1.1873231135084006	1.334044294611815	0.1300540642962862	1.1018911592107787	1.4285419819492002	0.049393930077832396	1.154081778540105	1.4207521008379063	0.07389587659616143	1.2321860905072164	1.357106738467079	0.21758476331892476	0.43763233118257405	0.16735327933548416	0.23031675233787027	0.26209367423286334	0.002045894472596926	0.25726201211779925	0.2747545685058832	0.1360960299374371	0.3831544754178121	0.48170888462742134	0.23403830003385223	0.38385407640556285	0.6105731532540929	0.4489573487551972	0.33063659771463827	0.6115096414013086	0.6710285745582898	0.25008473260176856	0.6369956022630964	0.7649492031839049	0.2548065545568131	0.644307699237847	0.7731552463511153	0.2828496006770857	0.7150759151084117	0.7631118384884611	0.08864683953124994	0.44930548307337836	0.25390110748740635	0.08738960807654346	0.5333352166322141	0.4966236880120397	0.21542162842146384	0.6161204428260467	0.6768094214994518	0.2947283684056811	0.6495438558436317	0.7461828803145427	0.2834334164037288	0.6692128801243198	0.7648931536107124	0.25795527128045503	0.6465403990744338	0.7739040305059833
1	0.025	0.30907203840307806	0.7198724004408215	0.5530067308434672	0.29321570501825595	0.9775284566578184	0.9307418373436586	0.2495969867006816	1.1987022554939046	1.3133231591323602	0.28411839713167714	1.1251922806012844	1.4097239019743975	0.33853901762968663	1.1410815464691315	1.388590290896098	0.19602957682230265	1.2845267316550322	1.3433761305265723	0.10836793885420191	0.708770966034987	0.5822513551934702	0.08250912199689638	0.9228087426153221	0.9491670060536994	0.07566004838312382	1.1832580635884589	1.3304785046676217	0.13146860538041572	1.0788435727953158	1.4251058104024086	0.058624877660434706	1.1055130851460098	1.4137101348421108	0.07307768234037196	1.2429095669054009	1.3539445620090858	0.21751738907800833	0.43848800101413377	0.16813225055960854	0.2341080038692771	0.2575675920758082	0.004472691614667139	0.2574573940734259	0.27256899997143413	0.13400842038884647	0.3832166385781647	0.4816052883826465	0.234095894275212	0.383718710198676	0.6108242822551009	0.449008729570194	0.33071143824796956	0.61126601416492	0.6710940854657987	0.25028607459944474	0.6349307181880761	0.7617777028846717	0.2523607134516694	0.6470536305963823	0.772074902863921	0.28303667625683404	0.7156214598522359	0.7640128784469852	0.08852091729560499	0.4514603571741558	0.255763345258493	0.08734847536317591	0.5349532925675533	0.4994422574912966	0.2086018536154602	0.6282762048300485	0.6778579813424077	0.29323059094105713	0.656682525073331	0.7416032004971543	0.28970025933798765	0.669996140769918	0.7639400929929464	0.25800887331241096	0.6466142689674834	0.7742339288667062
2	0.05	0.30904941294053734	0.7203354794087125	0.5545126747003346	0.2922609390665437	0.9775159758489724	0.9332550109649511	0.24938457651543955	1.2036324340458548	1.313291479820653	0.28285391764582474	1.1140938398180296	1.4098835055949723	0.34110110970823027	1.1221510414831735	1.3906320522175413	0.1951025132520045	1.2997305483944044	1.3433622298013144	0.10845652349078458	0.7093935142667165	0.5821376382453939	0.08296044795361633	0.9224076623128934	0.9490268956745813	0.07567172627933083	1.1819148132485566	1.3291844819235086	0.1330675582858547	1.0605202994178309	1.4230439245873916	0.05931193306647661	1.0885782444595318	1.411909299835379	0.07259245142291916	1.2478227845859746	1.3527074225116054	0.2174247768349008	0.4398122716295753	0.16937715115866595	0.23301912098806415	0.2587551887134791	0.003790417933748666	0.25745739513484894	0.2725540981149188	0.13403039318338064	0.3832624571996145	0.4815365314490323	0.23412663408910117	0.3837037581776845	0.6109582743085242	0.44900560178651244	0.33077555401115194	0.6111562917754927	0.6712226442230249	0.25020304747244987	0.6340818367737502	0.7616687426357355	0.25112075681903834	0.6473518576106774	0.7716442411538187	0.2832076772921284	0.7160517000652533	0.7643296657550152	0.08845882011988679	0.4522638824910734	0.2564544656385401	0.08716697046544682	0.5364182366347308	0.5016427206022597	0.20608613917928414	0.6326597728033526	0.678171571068189	0.29375900631339624	0.663123987102656	0.7391111660381875	0.2889311895330667	0.670434873222517	0.763550770284156	0.2579826665822913	0.646635074584134	0.7742111346317923
3	0.075	0.30918768612691994	0.7204031801585885	0.5547660152435652	0.29153714089194616	0.9780157356037289	0.9334782398400518	0.25015734441777115	1.201388625260126	1.3111136965683508	0.2819906068508521	1.1064654999864403	1.4102097414048593	0.338737967525984	1.1198293787789328	1.3923797508608302	0.19410003542654108	1.310331350513933	1.343547318996346	0.10832046004164045	0.7110059076520883	0.5824092342254502	0.08286258153536497	0.9226464686919211	0.9493441210688844	0.07556625393470301	1.1823217184784471	1.329493457288826	0.13444746439022778	1.0501245001525132	1.4218749509276907	0.05658054289086962	1.0896174357299204	1.4131058846506477	0.07212763087708364	1.249885241481667	1.3527687118054277	0.21737149179384335	0.44069995221386693	0.170194113654899	0.23045151867339783	0.2617168974953698	0.002152300342271393	0.2573212381659806	0.2739967547905253	0.13544106731693242	0.38329293722167307	0.4815205788115464	0.2341452599172026	0.3837969826631499	0.6108489677899763	0.44897384191897105	0.33082834915813086	0.6110833586263298	0.6713337531180461	0.25011472437986776	0.6351308036889868	0.7636048836403241	0.2512183229641193	0.6495374006552365	0.7711588289480849	0.2832979502079622	0.7161898554652845	0.7637168987774575	0.08846274002193638	0.45209911915394974	0.25633584319724984	0.086785009744236	0.5399820247469773	0.5011642831111456	0.20653914658192168	0.6309507529637735	0.6771971740626589	0.29473539833876666	0.6656215305767654	0.7386171422903738	0.28647284231049086	0.6705683543647043	0.763497194235411	0.25792460772337733	0.646659467036132	0.7740921172437326
